<?xml version="1.0" standalone="no"?>
<!DOCTYPE svg PUBLIC "-//W3C//DTD SVG 20010904//EN"
 "http://www.w3.org/TR/2001/REC-SVG-20010904/DTD/svg10.dtd">
<svg version="1.0" xmlns="http://www.w3.org/2000/svg"
 width="577.000000pt" height="577.000000pt" viewBox="0 0 577.000000 577.000000"
 preserveAspectRatio="xMidYMid meet">
<metadata>
Created by potrace 1.11, written by Peter Selinger 2001-2013
</metadata>
<g transform="translate(0.000000,577.000000) scale(0.100000,-0.100000)"
fill="#000000" stroke="none">
<path d="M1360 5735 c-13 -14 -20 -25 -17 -25 4 0 0 -8 -9 -17 -8 -10 -56 -67
-105 -128 -50 -60 -103 -124 -118 -141 -15 -17 -41 -49 -57 -70 -16 -21 -42
-53 -59 -70 -16 -18 -41 -47 -55 -65 -14 -18 -30 -37 -35 -43 -6 -6 -78 -92
-160 -191 -82 -99 -152 -182 -155 -185 -3 -3 -35 -41 -70 -85 -36 -44 -67 -82
-70 -85 -3 -3 -50 -58 -104 -122 -53 -65 -101 -120 -107 -123 -5 -4 -9 -579
-9 -1493 l0 -1487 28 -32 c15 -17 56 -66 92 -110 35 -43 67 -80 70 -83 3 -3
25 -30 50 -60 25 -30 50 -60 55 -66 6 -6 27 -31 46 -54 42 -52 203 -246 232
-280 35 -40 170 -203 187 -223 8 -11 20 -24 25 -31 6 -6 46 -54 89 -106 43
-52 89 -107 102 -122 13 -15 24 -32 24 -37 0 -5 4 -11 9 -13 5 -2 40 -41 78
-88 61 -75 73 -85 105 -88 46 -4 67 8 213 130 11 9 79 64 150 123 72 58 139
114 150 123 12 9 57 46 100 82 44 35 82 67 85 70 3 3 86 70 185 150 187 150
206 165 264 216 20 17 101 84 181 149 79 65 151 124 158 132 7 7 16 13 20 13
4 0 26 17 48 38 23 20 50 44 60 52 131 105 230 186 234 190 3 3 34 29 70 58
36 29 74 60 86 70 11 9 40 33 64 52 40 33 158 129 206 170 12 10 52 42 90 71
38 30 75 60 83 67 8 8 46 39 85 70 39 31 76 62 82 67 6 6 28 24 49 40 21 17
43 35 49 40 6 6 36 30 66 55 30 25 57 47 60 50 3 3 28 23 55 45 28 22 149 121
270 221 261 215 258 212 278 193 8 -8 31 -27 52 -44 21 -16 43 -34 49 -40 6
-5 29 -23 51 -39 22 -17 42 -32 45 -36 3 -3 30 -25 60 -50 30 -25 57 -47 60
-50 8 -8 96 -80 219 -178 63 -50 118 -89 122 -86 5 3 9 53 9 112 l0 107 -92
75 c-188 153 -384 315 -411 341 l-29 25 59 51 c32 29 114 98 183 154 69 57
130 108 136 114 6 5 33 29 60 52 85 73 89 77 90 106 0 15 -4 27 -9 27 -4 0 -5
5 -1 12 11 18 4 136 -8 141 -6 2 -174 -130 -252 -198 -13 -11 -43 -36 -66 -55
-273 -220 -336 -270 -348 -270 -11 0 -141 99 -232 176 -35 31 -320 263 -366
299 -20 17 -42 35 -48 40 -6 6 -83 69 -171 140 -88 71 -169 137 -180 146 -36
31 -120 99 -131 108 -76 61 -183 149 -199 164 -11 10 -83 70 -160 132 -77 62
-151 122 -165 134 -14 11 -29 24 -35 29 -46 36 -547 446 -601 491 -17 14 -40
33 -50 41 -81 64 -281 227 -290 235 -6 6 -31 27 -54 46 -24 18 -70 57 -104 85
-34 28 -124 102 -201 164 -77 63 -145 119 -151 125 -6 5 -27 22 -46 37 -19 15
-68 55 -109 88 -66 54 -78 60 -119 60 -37 0 -52 -5 -70 -25z"/>
</g>
</svg>
